<svg width="14" height="14" viewBox="0 0 14 14" fill="none" xmlns="http://www.w3.org/2000/svg">
<path fill-rule="evenodd" clip-rule="evenodd" d="M1.08579 1.08579C1.46086 0.710714 1.96957 0.5 2.5 0.5H8.5C9.03043 0.5 9.53914 0.710714 9.91421 1.08579C10.2893 1.46086 10.5 1.96957 10.5 2.5V3.5H11.5C12.6046 3.5 13.5 4.39543 13.5 5.5V11.5C13.5 12.6046 12.6046 13.5 11.5 13.5H5.5C4.39543 13.5 3.5 12.6046 3.5 11.5V10.5H2.5C1.96957 10.5 1.46086 10.2893 1.08579 9.91421C0.710714 9.53914 0.5 9.03043 0.5 8.5V2.5C0.5 1.96957 0.710714 1.46086 1.08579 1.08579ZM4.5 11.5C4.5 12.0523 4.94772 12.5 5.5 12.5H11.5C12.0523 12.5 12.5 12.0523 12.5 11.5V5.5C12.5 4.94772 12.0523 4.5 11.5 4.5H5.5C4.94772 4.5 4.5 4.94772 4.5 5.5V11.5ZM9.5 3.5H5.5C4.39543 3.5 3.5 4.39543 3.5 5.5V9.5H2.5C2.23478 9.5 1.98043 9.39464 1.79289 9.20711C1.60536 9.01957 1.5 8.76522 1.5 8.5V2.5C1.5 2.23478 1.60536 1.98043 1.79289 1.79289C1.98043 1.60536 2.23478 1.5 2.5 1.5H8.5C8.76522 1.5 9.01957 1.60536 9.20711 1.79289C9.39464 1.98043 9.5 2.23478 9.5 2.5V3.5Z" fill="white"/>
</svg>
