<svg width="94" height="20" viewBox="0 0 94 20" fill="none" xmlns="http://www.w3.org/2000/svg">
<path d="M16.2416 5.63758C19.4899 5.63758 21.6107 7.73154 21.6107 11.5168V19.5973H18.0671V12.2685C18.0671 10.2282 17.3154 8.9396 15.4631 8.9396C13.557 8.9396 12.5906 10.3624 12.5906 12.6711V19.5973H9.02014V12.2685C9.02014 10.255 8.2953 8.9396 6.4698 8.9396C4.56376 8.9396 3.54362 10.3893 3.54362 12.7785V19.5973H0V6.01342H3.54362V7.62416C4.42953 6.4698 5.77181 5.63758 7.57047 5.63758C9.47651 5.63758 10.8188 6.38926 11.651 7.67785C12.5369 6.55034 14.0671 5.63758 16.2416 5.63758Z" fill="white"/>
<path d="M24.3346 19.5973V6.01342H27.9051V19.5973H24.3346Z" fill="white"/>
<path d="M41.0984 0H44.6689V19.5973H41.0984V17.9329C40.132 19.1678 38.6286 19.9732 36.7226 19.9732C32.9642 19.9732 30.0111 16.9128 30.0111 12.8054C30.0111 8.67114 32.9642 5.63758 36.7226 5.63758C38.6286 5.63758 40.132 6.41611 41.0984 7.65101V0ZM37.34 16.8054C39.4877 16.8054 41.2058 15.1409 41.2058 12.7785C41.2058 10.443 39.4877 8.80537 37.34 8.80537C35.1118 8.80537 33.5279 10.443 33.5279 12.7785C33.5279 15.1409 35.1118 16.8054 37.34 16.8054Z" fill="white"/>
<path d="M63.8181 6.01342H67.4959L62.798 19.5973H59.4959L56.704 11.0336L53.9121 19.5973H50.5832L45.9121 6.01342H49.5899L52.4087 15.1141L55.2006 6.01342H58.1805L60.9993 15.1141L63.8181 6.01342Z" fill="white"/>
<path d="M74.8436 19.9732C70.4946 19.9732 67.461 17.1007 67.461 12.8054C67.461 8.75168 70.3067 5.63758 74.5751 5.63758C79.0315 5.63758 81.5819 8.72483 81.5819 12.6175C81.5819 13.047 81.5819 13.4497 81.5013 13.8792H70.951C71.1926 15.6242 72.4275 16.9664 74.8973 16.9664C76.6154 16.9664 77.6624 16.1879 78.1993 15.1678L81.3939 16.1074C80.6154 17.8792 78.4141 19.9732 74.8436 19.9732ZM70.951 11.651H78.1188C77.9577 9.98658 76.6691 8.6443 74.5483 8.6443C72.4812 8.6443 71.1389 10.094 70.951 11.651Z" fill="white"/>
<path d="M83.6625 19.5973V0H87.2061V19.5973H83.6625Z" fill="white"/>
<path d="M90.0919 19.5973V0H93.6356V19.5973H90.0919Z" fill="white"/>
<path d="M24.0391 2.04027C24.0391 3.22148 24.9787 4.13423 26.1599 4.13423C27.3411 4.13423 28.2807 3.22148 28.2807 2.04027C28.2807 0.91275 27.3411 0 26.1599 0C24.9787 0 24.0391 0.91275 24.0391 2.04027Z" fill="#1C64FF"/>
</svg>
