<svg width="1599" height="342" viewBox="0 0 1599 342" fill="none" xmlns="http://www.w3.org/2000/svg">
<path d="M278.057 97.0068C333.495 97.0068 369.69 132.744 369.69 197.345V335.253H309.212V210.174C309.212 175.353 296.383 153.361 264.77 153.361C232.24 153.361 215.746 177.644 215.746 217.046V335.253H154.81V210.174C154.81 175.811 142.44 153.361 111.284 153.361C78.7546 153.361 61.3443 178.102 61.3443 218.879V335.253H0.86644V103.421H61.3443V130.911C76.4638 111.21 99.372 97.0068 130.069 97.0068C162.599 97.0068 185.507 109.835 199.71 131.827C214.83 112.584 240.945 97.0068 278.057 97.0068Z" fill="white"/>
<path d="M416.178 335.253V103.421H477.114V335.253H416.178Z" fill="white"/>
<path d="M702.279 0.791992H763.215V335.253H702.279V306.847C685.785 327.922 660.128 341.667 627.598 341.667C563.455 341.667 513.057 289.436 513.057 219.337C513.057 148.779 563.455 97.0068 627.598 97.0068C660.128 97.0068 685.785 110.294 702.279 131.369V0.791992ZM638.136 287.604C674.789 287.604 704.112 259.197 704.112 218.879C704.112 179.018 674.789 151.07 638.136 151.07C600.108 151.07 573.076 179.018 573.076 218.879C573.076 259.197 600.108 287.604 638.136 287.604Z" fill="white"/>
<path d="M1090.03 103.421H1152.8L1072.62 335.253H1016.26L968.615 189.098L920.966 335.253H864.153L784.432 103.421H847.201L895.308 258.739L942.958 103.421H993.814L1041.92 258.739L1090.03 103.421Z" fill="white"/>
<path d="M1278.2 341.667C1203.97 341.667 1152.2 292.643 1152.2 219.337C1152.2 150.154 1200.77 97.0068 1273.62 97.0068C1349.67 97.0068 1393.2 149.696 1393.2 216.13C1393.2 223.46 1393.2 230.333 1391.82 237.664H1211.76C1215.89 267.444 1236.96 290.353 1279.11 290.353C1308.44 290.353 1326.3 277.066 1335.47 259.656L1389.99 275.691C1376.7 305.93 1339.13 341.667 1278.2 341.667ZM1211.76 199.636H1334.09C1331.34 171.23 1309.35 148.321 1273.16 148.321C1237.88 148.321 1214.97 173.062 1211.76 199.636Z" fill="white"/>
<path d="M1428.71 335.253V0.791992H1489.18V335.253H1428.71Z" fill="white"/>
<path d="M1538.44 335.253V0.791992H1598.91V335.253H1538.44Z" fill="white"/>
<path d="M411.134 35.1541C411.134 55.3134 427.17 70.891 447.329 70.891C467.488 70.891 483.524 55.3134 483.524 35.1541C483.524 15.9111 467.488 0.333496 447.329 0.333496C427.17 0.333496 411.134 15.9111 411.134 35.1541Z" fill="#FF9900"/>
</svg>
